<?xml version="1.0" encoding="UTF-8" standalone="no"?>
<!-- Generator: Adobe Illustrator 19.0.0, SVG Export Plug-In . SVG Version: 6.00 Build 0)  -->

<svg
   xmlns:dc="http://purl.org/dc/elements/1.1/"
   xmlns:cc="http://creativecommons.org/ns#"
   xmlns:rdf="http://www.w3.org/1999/02/22-rdf-syntax-ns#"
   xmlns:svg="http://www.w3.org/2000/svg"
   xmlns="http://www.w3.org/2000/svg"
   xmlns:sodipodi="http://sodipodi.sourceforge.net/DTD/sodipodi-0.dtd"
   xmlns:inkscape="http://www.inkscape.org/namespaces/inkscape"
   version="1.1"
   id="Capa_1"
   x="0px"
   y="0px"
   viewBox="0 0 16 16"
   xml:space="preserve"
   sodipodi:docname="org.ampr.ct1enq.gdx-symbolic.svg"
   width="16"
   height="16"
   inkscape:version="0.92+devel unknown"><sodipodi:namedview
     pagecolor="#ffffff"
     bordercolor="#666666"
     inkscape:document-rotation="0"
     borderopacity="1"
     objecttolerance="10"
     gridtolerance="10"
     guidetolerance="10"
     inkscape:pageopacity="0"
     inkscape:pageshadow="2"
     inkscape:window-width="1366"
     inkscape:window-height="671"
     id="namedview35"
     showgrid="false"
     fit-margin-top="0"
     fit-margin-left="0"
     fit-margin-right="0"
     fit-margin-bottom="0"
     inkscape:zoom="9.1090909"
     inkscape:cx="8"
     inkscape:cy="8"
     inkscape:window-x="0"
     inkscape:window-y="27"
     inkscape:window-maximized="1"
     inkscape:current-layer="Capa_1" /><metadata
     id="metadata39"><rdf:RDF><cc:Work
         rdf:about=""><dc:format>image/svg+xml</dc:format><dc:type
           rdf:resource="http://purl.org/dc/dcmitype/StillImage" /><dc:title></dc:title></cc:Work></rdf:RDF></metadata><defs
     id="defs37" /><path
     style="stroke-width:0.29090908;opacity:1;fill:#000000;fill-opacity:1"
     inkscape:connector-curvature="0"
     id="path2"
     d="m 14.254545,0 c -0.962618,0 -1.745454,0.782836 -1.745454,1.745455 0,0.30109 0.07651,0.584436 0.2112,0.832 L 9.860945,5.4368 C 9.466764,5.129891 8.973382,4.945455 8.436364,4.945455 c -0.537019,0 -1.0304,0.184436 -1.424873,0.491054 L 4.780509,3.205527 c 0.1024,-0.173091 0.164946,-0.372072 0.164946,-0.587345 0,-0.641746 -0.521891,-1.163637 -1.163637,-1.163637 -0.641745,0 -1.163636,0.521891 -1.163636,1.163637 0,0.641745 0.521891,1.163636 1.163636,1.163636 0.215273,0 0.414255,-0.06255 0.587346,-0.164945 L 6.600145,5.847855 C 6.293527,6.242327 6.109091,6.735709 6.109091,7.272727 c 0,0.537018 0.184436,1.0304 0.491054,1.424582 l -3.684072,3.684364 c -0.310109,-0.281309 -0.72,-0.4544 -1.170618,-0.4544 C 0.782836,11.927273 0,12.710109 0,13.672727 c 0,0.962618 0.782836,1.745455 1.745455,1.745455 0.962618,0 1.745454,-0.782837 1.745454,-1.745455 0,-0.301091 -0.07651,-0.584436 -0.2112,-0.832 L 7.011782,9.108655 C 7.333527,9.358836 7.7216,9.5264 8.145745,9.579636 v 2.955637 C 7.3216,12.674327 6.6912,13.391127 6.6912,14.254545 6.6912,15.217164 7.474036,16 8.436655,16 c 0.962618,0 1.745454,-0.782836 1.745454,-1.745455 0,-0.863127 -0.6304,-1.579927 -1.454545,-1.719272 V 9.579636 c 0.424145,-0.05324 0.812218,-0.2208 1.133963,-0.470981 l 2.230982,2.230981 c -0.102691,0.173382 -0.165236,0.372364 -0.165236,0.587637 0,0.641745 0.521891,1.163636 1.163636,1.163636 0.641746,0 1.163636,-0.521891 1.163636,-1.163636 0,-0.641746 -0.52189,-1.163637 -1.163636,-1.163637 -0.215273,0 -0.414254,0.06255 -0.587345,0.164946 L 10.272582,8.6976 c 0.306618,-0.394473 0.491054,-0.887855 0.491054,-1.424873 0,-0.537018 -0.184436,-1.0304 -0.491054,-1.424582 l 2.811636,-2.811636 c 0.309818,0.281309 0.719709,0.4544 1.170327,0.4544 C 15.217164,3.490909 16,2.708073 16,1.745455 16,0.782836 15.217164,0 14.254545,0 Z M 3.2,2.618182 c 0,-0.320873 0.260945,-0.581818 0.581818,-0.581818 0.320873,0 0.581818,0.260945 0.581818,0.581818 C 4.363636,2.939055 4.102691,3.2 3.781818,3.2 3.460945,3.2 3.2,2.939055 3.2,2.618182 Z M 1.745455,14.836364 c -0.641746,0 -1.163637,-0.521891 -1.163637,-1.163637 0,-0.641745 0.521891,-1.163636 1.163637,-1.163636 0.641745,0 1.163636,0.521891 1.163636,1.163636 0,0.641746 -0.521891,1.163637 -1.163636,1.163637 z M 9.6,14.254545 c 0,0.641746 -0.521891,1.163637 -1.163636,1.163637 -0.641746,0 -1.163637,-0.521891 -1.163637,-1.163637 0,-0.641745 0.521891,-1.163636 1.163637,-1.163636 C 9.078109,13.090909 9.6,13.6128 9.6,14.254545 Z M 8.436364,9.018182 c -0.962619,0 -1.745455,-0.782837 -1.745455,-1.745455 0,-0.962618 0.782836,-1.745454 1.745455,-1.745454 0.962618,0 1.745454,0.782836 1.745454,1.745454 0,0.962618 -0.782836,1.745455 -1.745454,1.745455 z m 5.236363,2.909091 c 0,0.320872 -0.260945,0.581818 -0.581818,0.581818 -0.320873,0 -0.581818,-0.260946 -0.581818,-0.581818 0,-0.320873 0.260945,-0.581818 0.581818,-0.581818 0.320873,0 0.581818,0.260945 0.581818,0.581818 z m 0.581818,-9.018182 c -0.641745,0 -1.163636,-0.521891 -1.163636,-1.163636 0,-0.641746 0.521891,-1.163637 1.163636,-1.163637 0.641746,0 1.163637,0.521891 1.163637,1.163637 0,0.641745 -0.521891,1.163636 -1.163637,1.163636 z" /><g
     transform="translate(-19.5,-19.5)"
     id="g4" /><g
     transform="translate(-19.5,-19.5)"
     id="g6" /><g
     transform="translate(-19.5,-19.5)"
     id="g8" /><g
     transform="translate(-19.5,-19.5)"
     id="g10" /><g
     transform="translate(-19.5,-19.5)"
     id="g12" /><g
     transform="translate(-19.5,-19.5)"
     id="g14" /><g
     transform="translate(-19.5,-19.5)"
     id="g16" /><g
     transform="translate(-19.5,-19.5)"
     id="g18" /><g
     transform="translate(-19.5,-19.5)"
     id="g20" /><g
     transform="translate(-19.5,-19.5)"
     id="g22" /><g
     transform="translate(-19.5,-19.5)"
     id="g24" /><g
     transform="translate(-19.5,-19.5)"
     id="g26" /><g
     transform="translate(-19.5,-19.5)"
     id="g28" /><g
     transform="translate(-19.5,-19.5)"
     id="g30" /><g
     transform="translate(-19.5,-19.5)"
     id="g32" /></svg>